<mxfile host="65bd71144e">
    <diagram id="nJ0RIy20TzH4BYssSKbF" name="Page-1">
        <mxGraphModel dx="1568" dy="838" grid="1" gridSize="10" guides="1" tooltips="1" connect="1" arrows="1" fold="1" page="1" pageScale="1" pageWidth="850" pageHeight="1100" math="0" shadow="0">
            <root>
                <mxCell id="0"/>
                <mxCell id="1" parent="0"/>
                <mxCell id="2" value="User" style="rounded=1;whiteSpace=wrap;html=1;" parent="1" vertex="1">
                    <mxGeometry x="90" y="110" width="120" height="60" as="geometry"/>
                </mxCell>
                <mxCell id="8" value="&lt;u&gt;ID&lt;/u&gt;" style="ellipse;whiteSpace=wrap;html=1;" vertex="1" parent="1">
                    <mxGeometry x="10" y="20" width="60" height="40" as="geometry"/>
                </mxCell>
                <mxCell id="12" value="" style="endArrow=none;html=1;exitX=0;exitY=0;exitDx=0;exitDy=0;" edge="1" parent="1" source="2" target="8">
                    <mxGeometry width="50" height="50" relative="1" as="geometry">
                        <mxPoint x="110" y="130" as="sourcePoint"/>
                        <mxPoint x="180" y="90" as="targetPoint"/>
                    </mxGeometry>
                </mxCell>
                <mxCell id="21" value="Adressed" style="ellipse;whiteSpace=wrap;html=1;" vertex="1" parent="1">
                    <mxGeometry x="100" y="10" width="60" height="40" as="geometry"/>
                </mxCell>
                <mxCell id="22" value="password" style="ellipse;whiteSpace=wrap;html=1;" vertex="1" parent="1">
                    <mxGeometry x="10" y="200" width="60" height="40" as="geometry"/>
                </mxCell>
                <mxCell id="23" value="isVerfied" style="ellipse;whiteSpace=wrap;html=1;" vertex="1" parent="1">
                    <mxGeometry x="90" y="220" width="60" height="40" as="geometry"/>
                </mxCell>
                <mxCell id="24" value="email" style="ellipse;whiteSpace=wrap;html=1;" vertex="1" parent="1">
                    <mxGeometry x="180" y="10" width="60" height="40" as="geometry"/>
                </mxCell>
                <mxCell id="25" value="userName" style="ellipse;whiteSpace=wrap;html=1;" vertex="1" parent="1">
                    <mxGeometry x="170" y="220" width="60" height="40" as="geometry"/>
                </mxCell>
                <mxCell id="26" value="" style="endArrow=none;html=1;exitX=0.42;exitY=-0.02;exitDx=0;exitDy=0;exitPerimeter=0;" edge="1" parent="1" source="2" target="21">
                    <mxGeometry width="50" height="50" relative="1" as="geometry">
                        <mxPoint x="190" y="101.94" as="sourcePoint"/>
                        <mxPoint x="152.89800741177044" y="49.99721037647868" as="targetPoint"/>
                    </mxGeometry>
                </mxCell>
                <mxCell id="27" value="" style="endArrow=none;html=1;entryX=0.5;entryY=1;entryDx=0;entryDy=0;exitX=0.75;exitY=0;exitDx=0;exitDy=0;" edge="1" parent="1" source="2" target="24">
                    <mxGeometry width="50" height="50" relative="1" as="geometry">
                        <mxPoint x="190" y="100" as="sourcePoint"/>
                        <mxPoint x="282.89800741177044" y="49.99721037647868" as="targetPoint"/>
                    </mxGeometry>
                </mxCell>
                <mxCell id="28" value="" style="endArrow=none;html=1;exitX=0.333;exitY=0;exitDx=0;exitDy=0;exitPerimeter=0;" edge="1" parent="1" source="25" target="2">
                    <mxGeometry width="50" height="50" relative="1" as="geometry">
                        <mxPoint x="260" y="211.94000000000005" as="sourcePoint"/>
                        <mxPoint x="222.89800741177032" y="159.99721037647868" as="targetPoint"/>
                    </mxGeometry>
                </mxCell>
                <mxCell id="29" value="" style="endArrow=none;html=1;exitX=0.5;exitY=0;exitDx=0;exitDy=0;" edge="1" parent="1" source="23">
                    <mxGeometry width="50" height="50" relative="1" as="geometry">
                        <mxPoint x="190" y="221.94000000000005" as="sourcePoint"/>
                        <mxPoint x="152.89800741177032" y="169.99721037647873" as="targetPoint"/>
                    </mxGeometry>
                </mxCell>
                <mxCell id="30" value="" style="endArrow=none;html=1;exitX=0.64;exitY=0.06;exitDx=0;exitDy=0;entryX=0;entryY=1;entryDx=0;entryDy=0;exitPerimeter=0;" edge="1" parent="1" source="22" target="2">
                    <mxGeometry width="50" height="50" relative="1" as="geometry">
                        <mxPoint x="48.55000000000001" y="191.94000000000005" as="sourcePoint"/>
                        <mxPoint x="11.448007411770334" y="139.99721037647873" as="targetPoint"/>
                    </mxGeometry>
                </mxCell>
                <mxCell id="54" value="&lt;span style=&quot;color: rgb(209, 213, 219); font-family: Söhne, ui-sans-serif, system-ui, -apple-system, &amp;quot;Segoe UI&amp;quot;, Roboto, Ubuntu, Cantarell, &amp;quot;Noto Sans&amp;quot;, sans-serif, &amp;quot;Helvetica Neue&amp;quot;, Arial, &amp;quot;Apple Color Emoji&amp;quot;, &amp;quot;Segoe UI Emoji&amp;quot;, &amp;quot;Segoe UI Symbol&amp;quot;, &amp;quot;Noto Color Emoji&amp;quot;; font-size: 16px; text-align: left; background-color: rgb(52, 53, 65);&quot;&gt;Category&lt;/span&gt;" style="rounded=1;whiteSpace=wrap;html=1;" vertex="1" parent="1">
                    <mxGeometry x="990" y="85" width="120" height="60" as="geometry"/>
                </mxCell>
                <mxCell id="55" value="&lt;u&gt;ID&lt;/u&gt;" style="ellipse;whiteSpace=wrap;html=1;" vertex="1" parent="1">
                    <mxGeometry x="910" y="10" width="60" height="40" as="geometry"/>
                </mxCell>
                <mxCell id="56" value="" style="endArrow=none;html=1;exitX=0;exitY=0;exitDx=0;exitDy=0;" edge="1" parent="1" source="54" target="55">
                    <mxGeometry width="50" height="50" relative="1" as="geometry">
                        <mxPoint x="1010" y="120" as="sourcePoint"/>
                        <mxPoint x="1080" y="80" as="targetPoint"/>
                    </mxGeometry>
                </mxCell>
                <mxCell id="57" value="category&lt;br&gt;Name" style="ellipse;whiteSpace=wrap;html=1;" vertex="1" parent="1">
                    <mxGeometry x="1000" width="60" height="40" as="geometry"/>
                </mxCell>
                <mxCell id="60" value="createdBy" style="ellipse;whiteSpace=wrap;html=1;" vertex="1" parent="1">
                    <mxGeometry x="1090" y="10" width="60" height="40" as="geometry"/>
                </mxCell>
                <mxCell id="62" value="" style="endArrow=none;html=1;exitX=0.42;exitY=-0.02;exitDx=0;exitDy=0;exitPerimeter=0;" edge="1" parent="1" source="54" target="57">
                    <mxGeometry width="50" height="50" relative="1" as="geometry">
                        <mxPoint x="1090" y="91.94000000000005" as="sourcePoint"/>
                        <mxPoint x="1052.8980074117703" y="39.99721037647873" as="targetPoint"/>
                    </mxGeometry>
                </mxCell>
                <mxCell id="63" value="" style="endArrow=none;html=1;entryX=0.5;entryY=1;entryDx=0;entryDy=0;exitX=0.75;exitY=0;exitDx=0;exitDy=0;" edge="1" parent="1" source="54" target="60">
                    <mxGeometry width="50" height="50" relative="1" as="geometry">
                        <mxPoint x="1090" y="90" as="sourcePoint"/>
                        <mxPoint x="1182.8980074117703" y="39.99721037647873" as="targetPoint"/>
                    </mxGeometry>
                </mxCell>
                <mxCell id="67" value="&lt;span style=&quot;color: rgb(209, 213, 219); font-family: Söhne, ui-sans-serif, system-ui, -apple-system, &amp;quot;Segoe UI&amp;quot;, Roboto, Ubuntu, Cantarell, &amp;quot;Noto Sans&amp;quot;, sans-serif, &amp;quot;Helvetica Neue&amp;quot;, Arial, &amp;quot;Apple Color Emoji&amp;quot;, &amp;quot;Segoe UI Emoji&amp;quot;, &amp;quot;Segoe UI Symbol&amp;quot;, &amp;quot;Noto Color Emoji&amp;quot;; font-size: 16px; text-align: left; background-color: rgb(52, 53, 65);&quot;&gt;Product&lt;/span&gt;" style="rounded=1;whiteSpace=wrap;html=1;" vertex="1" parent="1">
                    <mxGeometry x="670" y="100" width="120" height="60" as="geometry"/>
                </mxCell>
                <mxCell id="68" value="&lt;u&gt;ID&lt;/u&gt;" style="ellipse;whiteSpace=wrap;html=1;" vertex="1" parent="1">
                    <mxGeometry x="590" y="10" width="60" height="40" as="geometry"/>
                </mxCell>
                <mxCell id="69" value="" style="endArrow=none;html=1;exitX=0;exitY=0;exitDx=0;exitDy=0;" edge="1" parent="1" source="67" target="68">
                    <mxGeometry width="50" height="50" relative="1" as="geometry">
                        <mxPoint x="690" y="120" as="sourcePoint"/>
                        <mxPoint x="760" y="80" as="targetPoint"/>
                    </mxGeometry>
                </mxCell>
                <mxCell id="70" value="Name" style="ellipse;whiteSpace=wrap;html=1;" vertex="1" parent="1">
                    <mxGeometry x="680" width="60" height="40" as="geometry"/>
                </mxCell>
                <mxCell id="71" value="priceAfter&lt;br&gt;Discount" style="ellipse;whiteSpace=wrap;html=1;" vertex="1" parent="1">
                    <mxGeometry x="590" y="190" width="60" height="40" as="geometry"/>
                </mxCell>
                <mxCell id="72" value="image" style="ellipse;whiteSpace=wrap;html=1;" vertex="1" parent="1">
                    <mxGeometry x="670" y="210" width="60" height="40" as="geometry"/>
                </mxCell>
                <mxCell id="73" value="stock" style="ellipse;whiteSpace=wrap;html=1;" vertex="1" parent="1">
                    <mxGeometry x="760" width="60" height="40" as="geometry"/>
                </mxCell>
                <mxCell id="74" value="category" style="ellipse;whiteSpace=wrap;html=1;" vertex="1" parent="1">
                    <mxGeometry x="750" y="210" width="60" height="40" as="geometry"/>
                </mxCell>
                <mxCell id="75" value="" style="endArrow=none;html=1;exitX=0.42;exitY=-0.02;exitDx=0;exitDy=0;exitPerimeter=0;" edge="1" parent="1" source="67" target="70">
                    <mxGeometry width="50" height="50" relative="1" as="geometry">
                        <mxPoint x="770" y="91.94" as="sourcePoint"/>
                        <mxPoint x="732.8980074117703" y="39.99721037647868" as="targetPoint"/>
                    </mxGeometry>
                </mxCell>
                <mxCell id="76" value="" style="endArrow=none;html=1;entryX=0.5;entryY=1;entryDx=0;entryDy=0;exitX=0.75;exitY=0;exitDx=0;exitDy=0;" edge="1" parent="1" source="67" target="73">
                    <mxGeometry width="50" height="50" relative="1" as="geometry">
                        <mxPoint x="770" y="90" as="sourcePoint"/>
                        <mxPoint x="862.8980074117703" y="39.99721037647868" as="targetPoint"/>
                    </mxGeometry>
                </mxCell>
                <mxCell id="77" value="" style="endArrow=none;html=1;exitX=0.333;exitY=0;exitDx=0;exitDy=0;exitPerimeter=0;" edge="1" parent="1" source="74" target="67">
                    <mxGeometry width="50" height="50" relative="1" as="geometry">
                        <mxPoint x="840" y="201.94000000000005" as="sourcePoint"/>
                        <mxPoint x="802.8980074117703" y="149.99721037647868" as="targetPoint"/>
                    </mxGeometry>
                </mxCell>
                <mxCell id="78" value="" style="endArrow=none;html=1;exitX=0.5;exitY=0;exitDx=0;exitDy=0;" edge="1" parent="1" source="72">
                    <mxGeometry width="50" height="50" relative="1" as="geometry">
                        <mxPoint x="770" y="211.94000000000005" as="sourcePoint"/>
                        <mxPoint x="732.8980074117703" y="159.99721037647873" as="targetPoint"/>
                    </mxGeometry>
                </mxCell>
                <mxCell id="79" value="" style="endArrow=none;html=1;exitX=0.64;exitY=0.06;exitDx=0;exitDy=0;entryX=0;entryY=1;entryDx=0;entryDy=0;exitPerimeter=0;" edge="1" parent="1" source="71" target="67">
                    <mxGeometry width="50" height="50" relative="1" as="geometry">
                        <mxPoint x="628.55" y="181.94000000000005" as="sourcePoint"/>
                        <mxPoint x="591.4480074117703" y="129.99721037647873" as="targetPoint"/>
                    </mxGeometry>
                </mxCell>
                <mxCell id="80" value="&lt;span style=&quot;color: rgb(209, 213, 219); font-family: Söhne, ui-sans-serif, system-ui, -apple-system, &amp;quot;Segoe UI&amp;quot;, Roboto, Ubuntu, Cantarell, &amp;quot;Noto Sans&amp;quot;, sans-serif, &amp;quot;Helvetica Neue&amp;quot;, Arial, &amp;quot;Apple Color Emoji&amp;quot;, &amp;quot;Segoe UI Emoji&amp;quot;, &amp;quot;Segoe UI Symbol&amp;quot;, &amp;quot;Noto Color Emoji&amp;quot;; font-size: 16px; text-align: left; background-color: rgb(52, 53, 65);&quot;&gt;Coupon&lt;/span&gt;" style="rounded=1;whiteSpace=wrap;html=1;" vertex="1" parent="1">
                    <mxGeometry x="420" y="360" width="120" height="60" as="geometry"/>
                </mxCell>
                <mxCell id="81" value="&lt;u&gt;ID&lt;/u&gt;" style="ellipse;whiteSpace=wrap;html=1;" vertex="1" parent="1">
                    <mxGeometry x="340" y="270" width="60" height="40" as="geometry"/>
                </mxCell>
                <mxCell id="82" value="" style="endArrow=none;html=1;exitX=0;exitY=0;exitDx=0;exitDy=0;" edge="1" parent="1" source="80" target="81">
                    <mxGeometry width="50" height="50" relative="1" as="geometry">
                        <mxPoint x="440" y="380" as="sourcePoint"/>
                        <mxPoint x="510" y="340" as="targetPoint"/>
                    </mxGeometry>
                </mxCell>
                <mxCell id="83" value="coupon&lt;br&gt;Code" style="ellipse;whiteSpace=wrap;html=1;" vertex="1" parent="1">
                    <mxGeometry x="430" y="260" width="60" height="40" as="geometry"/>
                </mxCell>
                <mxCell id="84" value="created&lt;br&gt;By" style="ellipse;whiteSpace=wrap;html=1;" vertex="1" parent="1">
                    <mxGeometry x="340" y="450" width="60" height="40" as="geometry"/>
                </mxCell>
                <mxCell id="85" value="updated&lt;br&gt;By" style="ellipse;whiteSpace=wrap;html=1;" vertex="1" parent="1">
                    <mxGeometry x="420" y="470" width="60" height="40" as="geometry"/>
                </mxCell>
                <mxCell id="86" value="value" style="ellipse;whiteSpace=wrap;html=1;" vertex="1" parent="1">
                    <mxGeometry x="510" y="260" width="60" height="40" as="geometry"/>
                </mxCell>
                <mxCell id="87" value="deleted&lt;br&gt;By" style="ellipse;whiteSpace=wrap;html=1;" vertex="1" parent="1">
                    <mxGeometry x="500" y="470" width="60" height="40" as="geometry"/>
                </mxCell>
                <mxCell id="88" value="" style="endArrow=none;html=1;exitX=0.42;exitY=-0.02;exitDx=0;exitDy=0;exitPerimeter=0;" edge="1" parent="1" source="80" target="83">
                    <mxGeometry width="50" height="50" relative="1" as="geometry">
                        <mxPoint x="520" y="351.94000000000005" as="sourcePoint"/>
                        <mxPoint x="482.89800741177044" y="299.9972103764787" as="targetPoint"/>
                    </mxGeometry>
                </mxCell>
                <mxCell id="89" value="" style="endArrow=none;html=1;entryX=0.5;entryY=1;entryDx=0;entryDy=0;exitX=0.75;exitY=0;exitDx=0;exitDy=0;" edge="1" parent="1" source="80" target="86">
                    <mxGeometry width="50" height="50" relative="1" as="geometry">
                        <mxPoint x="520" y="350" as="sourcePoint"/>
                        <mxPoint x="612.8980074117704" y="299.9972103764787" as="targetPoint"/>
                    </mxGeometry>
                </mxCell>
                <mxCell id="90" value="" style="endArrow=none;html=1;exitX=0.333;exitY=0;exitDx=0;exitDy=0;exitPerimeter=0;" edge="1" parent="1" source="87" target="80">
                    <mxGeometry width="50" height="50" relative="1" as="geometry">
                        <mxPoint x="590" y="461.94000000000005" as="sourcePoint"/>
                        <mxPoint x="552.8980074117703" y="409.99721037647873" as="targetPoint"/>
                    </mxGeometry>
                </mxCell>
                <mxCell id="91" value="" style="endArrow=none;html=1;exitX=0.5;exitY=0;exitDx=0;exitDy=0;entryX=0.25;entryY=1;entryDx=0;entryDy=0;" edge="1" parent="1" source="85" target="80">
                    <mxGeometry width="50" height="50" relative="1" as="geometry">
                        <mxPoint x="520" y="471.94000000000005" as="sourcePoint"/>
                        <mxPoint x="482.8980074117703" y="419.99721037647873" as="targetPoint"/>
                    </mxGeometry>
                </mxCell>
                <mxCell id="92" value="" style="endArrow=none;html=1;exitX=0.64;exitY=0.06;exitDx=0;exitDy=0;entryX=0;entryY=1;entryDx=0;entryDy=0;exitPerimeter=0;" edge="1" parent="1" source="84" target="80">
                    <mxGeometry width="50" height="50" relative="1" as="geometry">
                        <mxPoint x="378.54999999999995" y="441.94000000000005" as="sourcePoint"/>
                        <mxPoint x="341.4480074117703" y="389.99721037647873" as="targetPoint"/>
                    </mxGeometry>
                </mxCell>
                <mxCell id="93" value="&lt;span style=&quot;color: rgb(209, 213, 219); font-family: Söhne, ui-sans-serif, system-ui, -apple-system, &amp;quot;Segoe UI&amp;quot;, Roboto, Ubuntu, Cantarell, &amp;quot;Noto Sans&amp;quot;, sans-serif, &amp;quot;Helvetica Neue&amp;quot;, Arial, &amp;quot;Apple Color Emoji&amp;quot;, &amp;quot;Segoe UI Emoji&amp;quot;, &amp;quot;Segoe UI Symbol&amp;quot;, &amp;quot;Noto Color Emoji&amp;quot;; font-size: 16px; text-align: left; background-color: rgb(52, 53, 65);&quot;&gt;Cart&lt;/span&gt;" style="rounded=1;whiteSpace=wrap;html=1;" vertex="1" parent="1">
                    <mxGeometry x="340" y="105" width="120" height="60" as="geometry"/>
                </mxCell>
                <mxCell id="94" value="&lt;u&gt;ID&lt;/u&gt;" style="ellipse;whiteSpace=wrap;html=1;" vertex="1" parent="1">
                    <mxGeometry x="270" width="60" height="40" as="geometry"/>
                </mxCell>
                <mxCell id="95" value="" style="endArrow=none;html=1;exitX=0;exitY=0;exitDx=0;exitDy=0;" edge="1" parent="1" source="93" target="94">
                    <mxGeometry width="50" height="50" relative="1" as="geometry">
                        <mxPoint x="360" y="110" as="sourcePoint"/>
                        <mxPoint x="430" y="70" as="targetPoint"/>
                    </mxGeometry>
                </mxCell>
                <mxCell id="96" value="total&lt;br&gt;Price" style="ellipse;whiteSpace=wrap;html=1;" vertex="1" parent="1">
                    <mxGeometry x="350" width="60" height="40" as="geometry"/>
                </mxCell>
                <mxCell id="97" value="products" style="ellipse;whiteSpace=wrap;html=1;" vertex="1" parent="1">
                    <mxGeometry x="370" y="205" width="60" height="40" as="geometry"/>
                </mxCell>
                <mxCell id="99" value="priceAfter&lt;br&gt;Discount" style="ellipse;whiteSpace=wrap;html=1;" vertex="1" parent="1">
                    <mxGeometry x="430" width="60" height="40" as="geometry"/>
                </mxCell>
                <mxCell id="101" value="" style="endArrow=none;html=1;exitX=0.42;exitY=-0.02;exitDx=0;exitDy=0;exitPerimeter=0;" edge="1" parent="1" source="93" target="96">
                    <mxGeometry width="50" height="50" relative="1" as="geometry">
                        <mxPoint x="440" y="81.94000000000005" as="sourcePoint"/>
                        <mxPoint x="402.89800741177044" y="29.997210376478677" as="targetPoint"/>
                    </mxGeometry>
                </mxCell>
                <mxCell id="102" value="" style="endArrow=none;html=1;entryX=0.5;entryY=1;entryDx=0;entryDy=0;exitX=0.75;exitY=0;exitDx=0;exitDy=0;" edge="1" parent="1" source="93" target="99">
                    <mxGeometry width="50" height="50" relative="1" as="geometry">
                        <mxPoint x="440" y="80" as="sourcePoint"/>
                        <mxPoint x="532.8980074117703" y="29.997210376478677" as="targetPoint"/>
                    </mxGeometry>
                </mxCell>
                <mxCell id="105" value="" style="endArrow=none;html=1;exitX=0.5;exitY=0;exitDx=0;exitDy=0;entryX=0.5;entryY=1;entryDx=0;entryDy=0;" edge="1" parent="1" source="97" target="93">
                    <mxGeometry width="50" height="50" relative="1" as="geometry">
                        <mxPoint x="298.54999999999995" y="171.94000000000005" as="sourcePoint"/>
                        <mxPoint x="261.4480074117703" y="119.99721037647873" as="targetPoint"/>
                    </mxGeometry>
                </mxCell>
                <mxCell id="132" value="expireIn" style="ellipse;whiteSpace=wrap;html=1;" vertex="1" parent="1">
                    <mxGeometry x="630" y="350" width="60" height="40" as="geometry"/>
                </mxCell>
                <mxCell id="133" value="" style="endArrow=none;html=1;entryX=1;entryY=0.5;entryDx=0;entryDy=0;" edge="1" parent="1" target="80">
                    <mxGeometry width="50" height="50" relative="1" as="geometry">
                        <mxPoint x="630" y="380" as="sourcePoint"/>
                        <mxPoint x="870" y="155" as="targetPoint"/>
                    </mxGeometry>
                </mxCell>
                <mxCell id="135" value="" style="endArrow=classic;html=1;exitX=1;exitY=0.5;exitDx=0;exitDy=0;" edge="1" parent="1" source="2">
                    <mxGeometry width="50" height="50" relative="1" as="geometry">
                        <mxPoint x="710" y="360" as="sourcePoint"/>
                        <mxPoint x="340" y="140" as="targetPoint"/>
                    </mxGeometry>
                </mxCell>
                <mxCell id="139" value="" style="endArrow=classic;html=1;entryX=0;entryY=0.75;entryDx=0;entryDy=0;exitX=1;exitY=0.5;exitDx=0;exitDy=0;" edge="1" parent="1" source="67" target="54">
                    <mxGeometry width="50" height="50" relative="1" as="geometry">
                        <mxPoint x="1050" y="80" as="sourcePoint"/>
                        <mxPoint x="1100" y="30" as="targetPoint"/>
                    </mxGeometry>
                </mxCell>
                <mxCell id="140" value="" style="endArrow=classic;startArrow=classic;html=1;entryX=1;entryY=0.5;entryDx=0;entryDy=0;exitX=0;exitY=0.5;exitDx=0;exitDy=0;" edge="1" parent="1" source="67" target="93">
                    <mxGeometry width="50" height="50" relative="1" as="geometry">
                        <mxPoint x="710" y="350" as="sourcePoint"/>
                        <mxPoint x="760" y="300" as="targetPoint"/>
                    </mxGeometry>
                </mxCell>
                <mxCell id="148" value="" style="endArrow=classic;html=1;entryX=0;entryY=0.5;entryDx=0;entryDy=0;exitX=1;exitY=0.75;exitDx=0;exitDy=0;" edge="1" parent="1" source="2" target="80">
                    <mxGeometry width="50" height="50" relative="1" as="geometry">
                        <mxPoint x="280" y="210" as="sourcePoint"/>
                        <mxPoint x="370" y="380" as="targetPoint"/>
                        <Array as="points">
                            <mxPoint x="250" y="200"/>
                            <mxPoint x="280" y="200"/>
                            <mxPoint x="280" y="240"/>
                            <mxPoint x="280" y="390"/>
                        </Array>
                    </mxGeometry>
                </mxCell>
            </root>
        </mxGraphModel>
    </diagram>
</mxfile>